<svg width="154" height="16" viewBox="0 0 154 16" fill="none" xmlns="http://www.w3.org/2000/svg">
<path d="M35.4491 15.0263V0.253105H41.181C42.3453 0.253105 43.2822 0.399639 43.9918 0.699366C44.6945 0.999094 45.2457 1.45868 45.6452 2.07811C46.0448 2.69755 46.2446 3.35029 46.2446 4.02967C46.2446 4.66243 46.0655 5.25522 45.7141 5.81472C45.3628 6.37421 44.8254 6.82047 44.1089 7.16682C45.0321 7.42658 45.7417 7.87284 46.2377 8.5056C46.7338 9.13836 46.9818 9.88435 46.9818 10.7436C46.9818 11.4363 46.8302 12.0757 46.5271 12.6751C46.2239 13.2746 45.8519 13.7275 45.4041 14.0472C44.9563 14.3669 44.4052 14.6134 43.73 14.7799C43.0618 14.9464 42.235 15.0263 41.2637 15.0263H35.4491ZM37.4677 6.46079H40.7676C41.6632 6.46079 42.3039 6.40085 42.6966 6.28762C43.2133 6.14109 43.5991 5.89464 43.8609 5.55495C44.1227 5.21526 44.2536 4.78232 44.2536 4.26279C44.2536 3.76991 44.1296 3.34363 43.8885 2.97063C43.6473 2.59764 43.296 2.34454 42.8482 2.20466C42.3935 2.06479 41.6219 1.99819 40.5265 1.99819H37.4745V6.46079H37.4677ZM37.4677 13.2813H41.2705C41.925 13.2813 42.3797 13.2546 42.6484 13.208C43.1169 13.1281 43.5027 12.9949 43.8127 12.8084C44.1227 12.6219 44.3845 12.3488 44.5843 11.9891C44.7841 11.6294 44.8874 11.2165 44.8874 10.7436C44.8874 10.1907 44.7427 9.71117 44.4465 9.30488C44.1572 8.89858 43.7507 8.61217 43.234 8.44566C42.7173 8.27914 41.9733 8.19921 41.0019 8.19921H37.4677V13.2813Z" fill="#263238" fill-opacity="0.5"/>
<path d="M50.0199 15.0263V0.253105H61.0634V1.99819H52.0454V6.52074H60.4985V8.2525H52.0454V13.2813H61.4217V15.0263H50.0199Z" fill="#263238" fill-opacity="0.5"/>
<path d="M65.5415 0.253105H75.1038V15.0197H73.0853V1.99819H67.56V9.6046C67.56 11.1499 67.4843 12.2822 67.3327 13.0015C67.1811 13.7209 66.8711 14.2804 66.3889 14.68C65.9066 15.0796 65.3004 15.2794 64.5632 15.2794C64.1154 15.2794 63.5849 15.1995 62.958 15.0397L63.3025 13.3079C63.6332 13.4411 63.9225 13.5077 64.1567 13.5077C64.6183 13.5077 64.9559 13.3412 65.1901 13.0082C65.4175 12.6751 65.5346 11.8892 65.5346 10.657V0.253105H65.5415Z" fill="#263238" fill-opacity="0.5"/>
<path d="M78.0317 7.83288C78.0317 5.38177 78.7138 3.46352 80.071 2.07811C81.4351 0.692704 83.1918 0 85.3413 0C86.7536 0 88.0212 0.32637 89.1579 0.97911C90.2878 1.63185 91.1558 2.53769 91.7483 3.7033C92.3408 4.86891 92.637 6.18771 92.637 7.66636C92.637 9.165 92.327 10.5038 91.7001 11.6827C91.0732 12.8616 90.1913 13.7608 89.0408 14.3669C87.8972 14.9731 86.6571 15.2794 85.3344 15.2794C83.8945 15.2794 82.6131 14.9464 81.4764 14.2737C80.3465 13.601 79.4854 12.6885 78.8998 11.5229C78.3211 10.3573 78.0317 9.1317 78.0317 7.83288ZM80.1123 7.85952C80.1123 9.63791 80.6083 11.0433 81.6004 12.0624C82.5925 13.0881 83.8325 13.601 85.3275 13.601C86.85 13.601 88.1039 13.0814 89.0822 12.049C90.0673 11.0167 90.5565 9.54466 90.5565 7.64638C90.5565 6.44747 90.3429 5.3951 89.9227 4.49591C89.5024 3.59673 88.8893 2.90403 88.0763 2.41114C87.2703 1.91826 86.3609 1.67181 85.3482 1.67181C83.9152 1.67181 82.6889 2.14472 81.6555 3.09718C80.629 4.04965 80.1123 5.64154 80.1123 7.85952Z" fill="#263238" fill-opacity="0.5"/>
<path d="M94.7727 10.2773L96.681 10.1175C96.7706 10.8568 96.9842 11.4629 97.3149 11.9358C97.6455 12.4087 98.1554 12.795 98.8512 13.0814C99.547 13.3745 100.325 13.521 101.194 13.521C101.965 13.521 102.647 13.4078 103.233 13.188C103.825 12.9682 104.259 12.6618 104.549 12.2755C104.838 11.8892 104.983 11.4696 104.983 11.01C104.983 10.5437 104.845 10.1441 104.569 9.79776C104.294 9.45141 103.832 9.15834 103.191 8.92522C102.778 8.77203 101.876 8.53224 100.47 8.20587C99.0647 7.8795 98.0865 7.57312 97.5215 7.28671C96.7913 6.92038 96.247 6.46079 95.8888 5.91462C95.5305 5.36845 95.3514 4.75568 95.3514 4.07629C95.3514 3.33031 95.5719 2.63094 96.0059 1.98486C96.4468 1.33878 97.0806 0.845898 97.9211 0.506206C98.7616 0.173176 99.6985 0 100.725 0C101.855 0 102.854 0.173176 103.722 0.526188C104.59 0.879201 105.251 1.39873 105.72 2.08477C106.188 2.77081 106.436 3.54345 106.471 4.40933L104.535 4.5492C104.431 3.61671 104.08 2.91069 103.474 2.43112C102.875 1.95156 101.986 1.71844 100.815 1.71844C99.5952 1.71844 98.6996 1.93824 98.1416 2.37118C97.5835 2.80412 97.3011 3.32365 97.3011 3.93642C97.3011 4.46927 97.5009 4.90221 97.8936 5.24856C98.2794 5.58825 99.299 5.94127 100.939 6.30094C102.578 6.66061 103.708 6.97366 104.321 7.24009C105.21 7.63972 105.864 8.13927 106.292 8.74538C106.712 9.3515 106.925 10.0509 106.925 10.8435C106.925 11.6294 106.691 12.3688 106.23 13.0681C105.761 13.7608 105.093 14.307 104.225 14.6933C103.35 15.0796 102.372 15.2728 101.283 15.2728C99.8983 15.2728 98.7409 15.0796 97.8109 14.6866C96.8739 14.3003 96.1437 13.7142 95.6132 12.9282C95.0758 12.1556 94.8003 11.2698 94.7727 10.2773Z" fill="#263238" fill-opacity="0.5"/>
<path d="M109.971 15.0263V0.253105H111.989V6.32092H119.932V0.253105H121.951V15.0197H119.932V8.066H111.989V15.0263H109.971Z" fill="#263238" fill-opacity="0.5"/>
<path d="M124.913 7.83288C124.913 5.38177 125.595 3.46352 126.953 2.07811C128.317 0.692704 130.073 0 132.223 0C133.635 0 134.903 0.32637 136.04 0.97911C137.169 1.63185 138.037 2.53769 138.63 3.7033C139.222 4.86891 139.519 6.18771 139.519 7.66636C139.519 9.165 139.209 10.5038 138.582 11.6827C137.955 12.8616 137.073 13.7608 135.922 14.3669C134.779 14.9731 133.539 15.2794 132.216 15.2794C130.776 15.2794 129.495 14.9464 128.358 14.2737C127.228 13.601 126.367 12.6885 125.781 11.5229C125.21 10.3573 124.913 9.1317 124.913 7.83288ZM127.001 7.85952C127.001 9.63791 127.497 11.0433 128.489 12.0624C129.481 13.0881 130.721 13.601 132.216 13.601C133.739 13.601 134.992 13.0814 135.971 12.049C136.956 11.0167 137.445 9.54466 137.445 7.64638C137.445 6.44747 137.231 5.3951 136.811 4.49591C136.391 3.59673 135.778 2.90403 134.965 2.41114C134.159 1.91826 133.249 1.67181 132.237 1.67181C130.804 1.67181 129.577 2.14472 128.544 3.09718C127.517 4.04965 127.001 5.64154 127.001 7.85952Z" fill="#263238" fill-opacity="0.5"/>
<path d="M142.343 15.0263V0.253105H148.103C149.115 0.253105 149.894 0.29973 150.424 0.392978C151.175 0.512869 151.802 0.74599 152.312 1.08568C152.822 1.42537 153.228 1.89828 153.538 2.51105C153.848 3.12383 154 3.79655 154 4.52256C154 5.78141 153.587 6.84045 152.76 7.71299C151.933 8.58553 150.438 9.01847 148.282 9.01847H144.362V15.0197H142.343V15.0263ZM144.362 7.28005H148.309C149.618 7.28005 150.542 7.04693 151.093 6.57403C151.644 6.10112 151.912 5.44172 151.912 4.58916C151.912 3.96973 151.754 3.44354 151.43 3.00394C151.106 2.56434 150.679 2.27127 150.156 2.1314C149.818 2.04481 149.184 1.99819 148.268 1.99819H144.362V7.28005Z" fill="#263238" fill-opacity="0.5"/>
<rect x="18" y="1.27945" width="13" height="13" rx="6.5" stroke="#263238" stroke-opacity="0.5" stroke-width="2"/>
<rect x="1" y="1.27945" width="13" height="13" rx="6.5" stroke="#263238" stroke-opacity="0.5" stroke-width="2"/>
</svg>
